<svg width="57" height="62" viewBox="0 0 57 62" fill="none" xmlns="http://www.w3.org/2000/svg">
<path d="M53.6143 35.3868V60.409C53.6143 60.7423 53.6143 60.7531 53.2404 60.7531H43.4815C43.1076 60.7531 43.1076 60.7397 43.1076 60.3956V54.466C42.6403 55.1299 42.1729 55.7696 41.6238 56.361C40.286 57.799 38.6561 58.8957 36.81 59.7182C34.4032 60.8015 31.8649 61.3552 29.2039 61.538C24.4982 61.8444 20.0321 61.0837 15.8347 59.1027C11.6373 57.1217 8.36289 54.2187 5.95603 50.4797C4.19177 47.7004 3.1081 44.6979 2.59985 41.5234C2.36033 39.9241 2.25226 38.3006 2.31944 36.6878C2.41291 34.4353 2.77511 32.2338 3.4703 30.105H16.7986C16.5708 30.4867 16.3575 30.8791 16.156 31.285C15.3673 32.922 14.9672 34.6423 14.8328 36.4271C14.6721 38.7387 14.8854 41.0154 15.7003 43.2303C16.6496 45.7516 18.2416 47.8428 20.7127 49.2943C22.29 50.2163 24.028 50.7593 25.874 50.9797C28.2137 51.2753 30.5271 51.1651 32.7996 50.5604C35.8198 49.7486 38.2413 48.1976 39.8595 45.6629C40.0465 45.3565 40.1925 45.0473 40.3678 44.7409C40.4875 44.5447 40.4087 44.4936 40.1954 44.5071H26.0493C25.4475 44.5071 25.5293 44.5071 25.5293 44.0152V35.3788C25.5293 35.0105 25.5293 35.0105 25.9441 35.0105C35.0341 35.0105 44.1241 34.9971 53.2141 34.9971C53.6143 35.0051 53.6143 35.0159 53.6143 35.3868Z" fill="#EE8254"/>
<path d="M56.9879 26.7371C56.9091 27.6322 56.9733 27.6322 55.8079 27.6322H28.4415C20.7915 27.6322 13.1415 27.6457 5.49153 27.6322C5.49153 27.6322 1.46937 27.6322 1.42848 27.6322C0.788793 27.6322 0.154946 27.737 0.0235031 26.971C-0.224778 25.5168 1.55116 24.9738 2.65528 24.4497C3.14892 24.2158 3.34171 23.9067 3.35631 23.4363C3.38844 20.329 4.08947 17.3508 5.49153 14.5338C6.03482 13.4049 6.70372 12.3055 7.46901 11.233C10.4338 7.12847 14.5757 4.03463 20.0758 2.19875C21.177 1.83319 21.2238 1.86276 21.4312 2.80085C22.2753 6.81935 23.137 10.8379 23.9987 14.8725C24.0308 15.0203 24.0775 15.1816 24.1272 15.3267C24.2557 15.738 24.5887 15.8993 25.0824 15.8401C25.6081 15.781 25.8009 15.4746 25.7367 15.0929C25.576 14.1978 25.3861 13.2893 25.1934 12.3807C24.4281 8.85951 23.6482 5.34097 22.8829 1.81975C22.5762 0.39513 22.991 0 24.7611 0H32.5396C33.9591 0 34.4528 0.483833 34.2133 1.61278C33.2902 5.94039 32.3497 10.2814 31.4237 14.6225C31.3916 14.7703 31.3449 14.9316 31.3449 15.0929C31.3303 15.4746 31.5201 15.7676 32.0313 15.8401C32.5571 15.8993 32.8609 15.6789 32.9543 15.2972C33.115 14.6655 33.2581 14.0365 33.3837 13.4049C34.149 9.82718 34.8968 6.26294 35.662 2.68258C35.8227 1.8762 35.884 1.84663 36.8742 2.15574C43.201 4.22278 47.6642 7.86228 50.6611 12.7302C52.6854 16.0606 53.658 19.5952 53.7048 23.2912C53.7194 23.8771 53.9443 24.2588 54.5665 24.5223C55.028 24.7131 55.4281 24.9926 55.8896 25.1674C56.7659 25.4765 57.0668 25.9764 56.9879 26.7371Z" fill="#EE8254"/>
</svg>
