<svg xmlns="http://www.w3.org/2000/svg" viewBox="0 0 64 64" fill="none">
  <defs>
    <linearGradient id="g-primary" x1="0" y1="0" x2="64" y2="64" gradientUnits="userSpaceOnUse">
      <stop offset="0%" stop-color="#0F2747"/>
      <stop offset="100%" stop-color="#163B68"/>
    </linearGradient>
    <linearGradient id="g-accent" x1="0" y1="0" x2="64" y2="64" gradientUnits="userSpaceOnUse">
      <stop offset="0%" stop-color="#C75A1B"/>
      <stop offset="100%" stop-color="#E67E22"/>
    </linearGradient>
  </defs>
  <!-- Background rounded square -->
  <rect width="64" height="64" rx="14" fill="url(#g-primary)"/>
  <!-- Abstract mark: interlocking G-shape nodes representing connection/matching -->
  <path d="M32 12 C22.06 12 14 20.06 14 30 C14 39.94 22.06 48 32 48 C36.6 48 40.78 46.34 44.06 43.64 L38.44 37.14 C36.64 38.58 34.4 39.44 32 39.44 C26.72 39.44 22.44 35.16 22.44 30 C22.44 24.84 26.72 20.56 32 20.56 C35.4 20.56 38.4 22.48 40 25.36 L40 25.36 L46.46 19.84 C43.26 15.2 37.96 12 32 12 Z" fill="url(#g-accent)"/>
  <path d="M32 20 C26.48 20 22 24.48 22 30 C22 35.52 26.48 40 32 40 C35.18 40 38 38.68 40 36.56 L34.56 31.12 C33.86 31.82 32.94 32.2 32 32.2 C30.1 32.2 28.6 30.7 28.6 28.8 C28.6 26.9 30.1 25.4 32 25.4 L32 25.4 L39 25.4 L39 23.2 L32 23.2 C28.24 23.2 25.2 26.24 25.2 30 C25.2 33.76 28.24 36.8 32 36.8 C35.76 36.8 38.8 33.76 38.8 30 C38.8 29.46 38.74 28.94 38.62 28.44 L31.82 28.44 C31.82 28.44 31.82 28.44 31.82 28.44 C31.82 28.44 31.82 28.44 31.82 28.44 L31.82 28.84 L38.62 28.84 L38.62 28.84 C38.8 29.2 39 29.72 39 30 C39 33.76 36.2 36.8 32 36.8 C27.8 36.8 25 33.76 25 30 C25 26.24 27.8 23.2 32 23.2 C34.2 23.2 36.2 24.16 37.62 25.66 L39.62 23.66 L40 23.66 L40 23.66 C38 21.4 35.18 20 32 20 Z" fill="white" opacity="0.95"/>
</svg>
